<?xml version="1.0" encoding="UTF-8"?>
<svg version="1.1" xmlns="http://www.w3.org/2000/svg" width="242" height="206">
<path d="M0 0 C1.82331861 -0.00067679 3.64663713 -0.0016499 5.46995544 -0.00289917 C9.28995626 -0.00436711 13.10993358 -0.00225654 16.92993164 0.00244141 C20.7662105 0.00694078 24.60244201 0.00706552 28.4387207 0.00244141 C41.35428732 -0.01305457 54.26844801 0.02577325 67.18359375 0.1328125 C68.49989902 0.14254845 68.49989902 0.14254845 69.84279633 0.15248108 C74.89713473 0.19179008 79.95027023 0.25372253 85.00385857 0.34988785 C86.53198456 0.37658141 88.06023462 0.39706083 89.5885334 0.41064072 C99.47289864 0.50694767 108.33678272 1.28700201 116.49609375 7.3828125 C125.61930506 16.71819152 127.63751507 27.02085305 127.58764648 39.72998047 C127.59450974 40.96208252 127.60137299 42.19418457 127.60844421 43.46362305 C127.62353498 46.81928255 127.62522678 50.17438299 127.61950183 53.53003454 C127.61639447 56.34285969 127.62251962 59.15563544 127.62854058 61.96845353 C127.64255093 68.61068463 127.64105421 75.25278702 127.62963867 81.89501953 C127.61816534 88.72124022 127.63222759 95.54706765 127.65903515 102.37323654 C127.6812708 108.25807021 127.68781179 114.14278116 127.68195873 120.02765381 C127.67860611 123.53179546 127.68088989 127.03568525 127.69820976 130.53979111 C127.71670699 134.45229964 127.70241117 138.36433348 127.68530273 142.27685547 C127.69980469 143.99166611 127.69980469 143.99166611 127.71459961 145.74111938 C127.62339348 155.74941619 125.4624361 164.97530094 118.33598328 172.35983276 C110.08691416 179.15480747 101.63239376 181.021388 91.1953125 180.9375 C89.98689697 180.951297 88.77848145 180.96509399 87.53344727 180.97930908 C83.64560658 181.01690318 79.75909095 181.01313627 75.87109375 181.0078125 C73.17353569 181.02158351 70.47606554 181.0438302 67.77856445 181.06591797 C61.33475561 181.11373443 54.89123889 181.12598854 48.44726562 181.12817383 C44.30698639 181.13405843 40.16738021 181.16876145 36.02734375 181.2109375 C29.48957169 181.26496159 22.95592616 181.23136787 16.41845703 181.15563965 C13.81936218 181.1290922 11.22026729 181.11189257 8.62109375 181.09472656 C3.41498178 181.05799757 -1.79047531 180.99725677 -6.9961853 180.92327881 C-9.05847079 180.89663964 -11.12084674 180.87617214 -13.18325806 180.86236572 C-16.07849462 180.84095928 -18.97236316 180.7944186 -21.8671875 180.7421875 C-22.72320557 180.74094879 -23.57922363 180.73971008 -24.46118164 180.73843384 C-33.63503177 180.51833251 -41.46146153 177.35528039 -48.12890625 171.05078125 C-55.64080269 162.51295451 -56.11415236 151.72738721 -56.07519531 140.89282227 C-56.07869995 139.68691437 -56.08220459 138.48100647 -56.08581543 137.23855591 C-56.09307911 133.95128502 -56.09141913 130.6641768 -56.08505726 127.37690854 C-56.07996582 123.92313901 -56.08469751 120.46937974 -56.08782959 117.01560974 C-56.09146061 111.21636019 -56.0866934 105.4171617 -56.07714844 99.61791992 C-56.06627067 92.93209218 -56.06978799 86.2463865 -56.08080125 79.56056172 C-56.08990498 73.80148581 -56.09114421 68.04244645 -56.08592391 62.28336567 C-56.08282046 58.85200722 -56.08234973 55.42070595 -56.08899689 51.98935127 C-56.0940934 48.16021684 -56.08630744 44.33131449 -56.07519531 40.50219727 C-56.07924377 39.37828079 -56.08329224 38.25436432 -56.08746338 37.09638977 C-56.02866976 26.12319151 -54.6104848 17.44557494 -47.02734375 9.18359375 C-34.62271741 -2.60327231 -15.93616787 -0.0212214 0 0 Z M2.18359375 54.1328125 C0.07235265 57.47897732 -0.07397466 60.17186278 -0.09106445 64.09130859 C-0.10059647 65.29290619 -0.11012848 66.49450378 -0.11994934 67.73251343 C-0.11903793 69.0273465 -0.11812653 70.32217957 -0.1171875 71.65625 C-0.12107706 73.00379569 -0.12541227 74.35134016 -0.13017273 75.69888306 C-0.13762723 78.52162654 -0.13734971 81.34424494 -0.13208008 84.16699219 C-0.12629217 87.77387327 -0.14320308 91.3802397 -0.16642475 94.98703575 C-0.181201 97.7701209 -0.18202844 100.55308329 -0.17891502 103.33620071 C-0.17967422 105.30922966 -0.19351862 107.28223963 -0.20759583 109.25521851 C-0.20136703 110.46312042 -0.19513824 111.67102234 -0.1887207 112.91552734 C-0.18935013 113.9737973 -0.18997955 115.03206726 -0.19062805 116.12240601 C0.3465568 120.44375973 1.96240209 123.77593287 4.87109375 127.0078125 C8.26743242 128.66008536 11.50976121 128.61757443 15.18359375 128.1328125 C17.88630137 127.10609727 20.2403327 125.66706135 22.68359375 124.1328125 C24.09568418 123.29225108 25.50980354 122.45509016 26.92578125 121.62109375 C27.63702148 121.19908691 28.34826172 120.77708008 29.08105469 120.34228516 C32.25218607 118.51811134 35.51870792 116.91709125 38.80859375 115.3203125 C45.58016211 111.99501173 52.2380189 108.47604577 58.87109375 104.8828125 C59.8161377 104.37516357 60.76118164 103.86751465 61.73486328 103.34448242 C69.59201138 99.47993369 69.59201138 99.47993369 75.18359375 93.1328125 C75.7532117 87.63764943 75.7532117 87.63764943 73.74609375 82.68359375 C70.22218457 79.17580001 66.30390138 77.31323507 61.87109375 75.1328125 C53.83185371 71.05990808 45.94308423 66.79635056 38.12109375 62.3203125 C34.47820168 60.25258644 30.83224616 58.19035603 27.18359375 56.1328125 C26.50844727 55.75125 25.83330078 55.3696875 25.13769531 54.9765625 C17.19326521 50.53843024 9.52785157 46.35653951 2.18359375 54.1328125 Z " fill="#34225B" transform="translate(69.81640625,11.8671875)"/>
<path d="M0 0 C1.20374268 0.02094727 2.40748535 0.04189453 3.64770508 0.06347656 C4.63941963 0.07686066 4.63941963 0.07686066 5.65116882 0.09051514 C7.08007104 0.11066144 8.50891777 0.13509849 9.93768311 0.16333008 C12.16224835 0.20401035 14.38621309 0.22537772 16.61108398 0.24121094 C20.45155694 0.27128877 24.29058655 0.33377407 28.13037109 0.41162109 C29.70545105 0.44010118 31.28068111 0.46117865 32.85595703 0.47509766 C43.30152936 0.57202533 52.77878771 0.98326217 61.47973633 7.45410156 C70.60294764 16.78948058 72.62115765 27.09214211 72.57128906 39.80126953 C72.57815231 41.03337158 72.58501556 42.26547363 72.59208679 43.53491211 C72.60717756 46.89057161 72.60886936 50.24567205 72.60314441 53.6013236 C72.60003705 56.41414875 72.6061622 59.22692451 72.61218315 62.03974259 C72.6261935 68.68197369 72.62469678 75.32407608 72.61328125 81.96630859 C72.60180791 88.79252929 72.61587017 95.61835672 72.64267772 102.4445256 C72.66491338 108.32935928 72.67145436 114.21407022 72.66560131 120.09894288 C72.66224869 123.60308452 72.66453247 127.10697431 72.68185234 130.61108017 C72.70034957 134.5235887 72.68605375 138.43562254 72.66894531 142.34814453 C72.68344727 144.06295517 72.68344727 144.06295517 72.69824219 145.81240845 C72.60703606 155.82070526 70.44607868 165.04659 63.31962585 172.43112183 C55.07055674 179.22609653 46.61603634 181.09267707 36.17895508 181.00878906 C34.97053955 181.02258606 33.76212402 181.03638306 32.51708984 181.05059814 C28.62924915 181.08819224 24.74273352 181.08442533 20.85473633 181.07910156 C18.15717827 181.09287257 15.45970812 181.11511927 12.76220703 181.13720703 C6.31839819 181.18502349 -0.12511853 181.1972776 -6.5690918 181.19946289 C-10.70937103 181.20534749 -14.84897721 181.24005052 -18.98901367 181.28222656 C-25.52678574 181.33625065 -32.06043126 181.30265693 -38.59790039 181.22692871 C-41.19699524 181.20038126 -43.79609013 181.18318163 -46.39526367 181.16601562 C-51.60137564 181.12928663 -56.80683273 181.06854584 -62.01254272 180.99456787 C-64.07482821 180.9679287 -66.13720416 180.94746121 -68.19961548 180.93365479 C-71.09485205 180.91224834 -73.98872058 180.86570767 -76.88354492 180.81347656 C-77.73956299 180.81223785 -78.59558105 180.81099915 -79.47753906 180.8097229 C-88.6513892 180.58962158 -96.47781895 177.42656946 -103.14526367 171.12207031 C-109.44980043 163.95649728 -111.09119601 154.70007432 -111.05981445 145.41113281 C-111.06010651 144.67844681 -111.06039856 143.9457608 -111.06069946 143.19087219 C-111.05932008 140.79932282 -111.04382555 138.40809565 -111.02807617 136.01660156 C-111.02434108 134.34651866 -111.02149645 132.67643355 -111.01950073 131.00634766 C-111.01190336 126.6333805 -110.99228878 122.26054845 -110.97009277 117.88763428 C-110.94954996 113.41631904 -110.94048106 108.94498175 -110.93041992 104.47363281 C-110.90903884 95.71706074 -110.87495052 86.96059801 -110.83276367 78.20410156 C-110.50276367 78.20410156 -110.17276367 78.20410156 -109.83276367 78.20410156 C-109.81818115 79.01564697 -109.80359863 79.82719238 -109.78857422 80.66333008 C-109.71378735 84.3648835 -109.61722606 88.06556535 -109.52026367 91.76660156 C-109.49770508 93.04341797 -109.47514648 94.32023437 -109.4519043 95.63574219 C-109.09680762 108.06412592 -105.84758377 115.40392004 -96.83276367 124.20410156 C-95.84484504 125.36336652 -94.86609304 126.53048799 -93.89526367 127.70410156 C-91.1321831 130.97728931 -88.16132455 133.51292468 -84.83276367 136.20410156 C-83.14402489 137.84839985 -81.47970852 139.51794374 -79.83276367 141.20410156 C-79.22432617 141.80222656 -78.61588867 142.40035156 -77.98901367 143.01660156 C-74.62589588 146.32797908 -71.38782819 149.66748446 -68.33276367 153.26660156 C-65.39052589 156.69809528 -62.18748674 159.57013824 -58.73901367 162.48144531 C-56.88397386 164.1578235 -55.34445267 165.89067203 -53.77026367 167.82910156 C-48.93313186 173.64673306 -44.19259989 176.38826095 -36.83276367 178.20410156 C-34.13427965 178.40779303 -31.54071126 178.53144287 -28.84448242 178.54003906 C-27.72962212 178.55002426 -27.72962212 178.55002426 -26.59223938 178.56021118 C-25.02831473 178.57027807 -23.46434764 178.57503006 -21.90039062 178.57470703 C-19.53661535 178.57907137 -17.17472417 178.61542645 -14.8112793 178.65332031 C-4.28055248 178.73106091 5.25322023 177.90422533 13.16723633 170.20410156 C14.91047877 168.2275785 16.62653462 166.23011076 18.33520508 164.22363281 C20.57364783 161.75609571 23.02360296 159.69678918 25.59692383 157.59082031 C27.74515293 155.69375233 29.38954763 153.44267251 31.16723633 151.20410156 C31.82723633 151.20410156 32.48723633 151.20410156 33.16723633 151.20410156 C33.42762695 150.6046875 33.68801758 150.00527344 33.95629883 149.38769531 C35.25007883 147.05471782 36.46192397 145.90632375 38.54223633 144.26660156 C41.52066628 141.83308187 43.77254228 139.21964222 46.16723633 136.20410156 C46.82723633 136.20410156 47.48723633 136.20410156 48.16723633 136.20410156 C48.41989258 135.61242187 48.67254883 135.02074219 48.93286133 134.41113281 C50.3127253 131.94397096 51.73084739 130.66698327 53.91723633 128.89160156 C57.24831158 126.08044005 60.0914085 123.15669272 62.84301758 119.78222656 C64.16723633 118.20410156 64.16723633 118.20410156 65.64599609 116.9387207 C71.54805157 110.20880509 70.62693469 97.88762279 70.54223633 89.51660156 C70.55963867 87.77926758 70.55963867 87.77926758 70.57739258 86.00683594 C70.537493 74.29630911 67.83573381 66.34497383 59.91723633 57.76660156 C57.58011125 55.58882592 55.20031597 53.48948789 52.79223633 51.39160156 C49.1149773 48.15951651 45.93488394 44.73936252 42.78051758 41.00488281 C41.04250333 38.97730036 41.04250333 38.97730036 38.16723633 36.70410156 C35.01126388 34.07412452 32.49271793 31.24268798 29.83129883 28.12988281 C27.07588949 24.94111097 24.2622271 22.00314888 20.85473633 19.51660156 C20.29786133 19.08347656 19.74098633 18.65035156 19.16723633 18.20410156 C19.16723633 17.54410156 19.16723633 16.88410156 19.16723633 16.20410156 C18.17723633 15.87410156 17.18723633 15.54410156 16.16723633 15.20410156 C14.50056966 13.5374349 12.83390299 11.87076823 11.16723633 10.20410156 C9.52754883 9.12128906 9.52754883 9.12128906 7.85473633 8.01660156 C6.96786133 7.41847656 6.08098633 6.82035156 5.16723633 6.20410156 C5.16723633 5.54410156 5.16723633 4.88410156 5.16723633 4.20410156 C0.21723633 3.21410156 0.21723633 3.21410156 -4.83276367 2.20410156 C-2.83276367 0.20410156 -2.83276367 0.20410156 0 0 Z " fill="#B0A2DA" transform="translate(124.832763671875,11.7958984375)"/>
<path d="M0 0 C1.52841648 0.00187058 3.05683356 0.00329145 4.58525085 0.00428772 C8.56189702 0.00806262 12.53850528 0.01784846 16.51513672 0.0289917 C20.59146614 0.0393154 24.66780183 0.04380855 28.74414062 0.04882812 C36.70835052 0.0594765 44.67252989 0.0764906 52.63671875 0.09765625 C52.63671875 0.42765625 52.63671875 0.75765625 52.63671875 1.09765625 C51.83564697 1.11747559 51.0345752 1.13729492 50.20922852 1.15771484 C46.53892527 1.25365316 42.8691383 1.36305188 39.19921875 1.47265625 C37.93916016 1.50359375 36.67910156 1.53453125 35.38085938 1.56640625 C24.46338696 1.90846805 14.02576316 2.354559 6.0859375 10.734375 C5.11226367 11.9022587 4.1514124 13.08094214 3.203125 14.26953125 C0.89188083 16.9669434 -1.78144652 19.17386925 -4.48046875 21.47265625 C-6.90194808 23.56256372 -9.13257136 25.8066569 -11.36328125 28.09765625 C-16.36328125 33.09765625 -16.36328125 33.09765625 -18.0234375 34.72265625 C-20.92729322 37.58183727 -23.70626013 40.45320945 -26.30078125 43.59765625 C-29.08269286 46.91512303 -32.19261499 49.67001053 -35.48046875 52.4765625 C-41.1536136 57.36111668 -47.01317562 62.83369338 -49.36328125 70.09765625 C-50.02328125 70.09765625 -50.68328125 70.09765625 -51.36328125 70.09765625 C-51.36328125 71.08765625 -51.36328125 72.07765625 -51.36328125 73.09765625 C-52.02328125 73.09765625 -52.68328125 73.09765625 -53.36328125 73.09765625 C-53.41297241 66.85377137 -53.44913824 60.61000337 -53.47314453 54.3659668 C-53.48315969 52.24485263 -53.49677571 50.12375212 -53.51416016 48.00268555 C-53.5386065 44.94186009 -53.5498095 41.88121828 -53.55859375 38.8203125 C-53.56891632 37.882444 -53.57923889 36.9445755 -53.58987427 35.97828674 C-53.59164252 25.44038292 -51.82450652 17.0477685 -44.57421875 9.1484375 C-32.63342732 -2.197693 -15.38280178 -0.05619117 0 0 Z " fill="#B2A7E1" transform="translate(67.36328125,11.90234375)"/>
<path d="M0 0 C0.33 0 0.66 0 1 0 C1.01458252 0.81154541 1.02916504 1.62309082 1.04418945 2.45922852 C1.11897632 6.16078193 1.21553761 9.86146379 1.3125 13.5625 C1.33505859 14.83931641 1.35761719 16.11613281 1.38085938 17.43164062 C1.73595605 29.86002436 4.9851799 37.19981848 14 46 C14.98791864 47.15926496 15.96667063 48.32638643 16.9375 49.5 C19.70058057 52.77318775 22.67143912 55.30882312 26 58 C27.68873879 59.64429829 29.35305515 61.31384218 31 63 C31.91265625 63.8971875 31.91265625 63.8971875 32.84375 64.8125 C36.2068678 68.12387752 39.44493549 71.4633829 42.5 75.0625 C45.44223778 78.49399372 48.64527693 81.36603668 52.09375 84.27734375 C53.94878981 85.95372194 55.488311 87.68657046 57.0625 89.625 C61.81517386 95.3410537 66.77314953 98.37764581 74 100 C74 100.33 74 100.66 74 101 C66.63528035 101.1274123 59.2708479 101.21460754 51.90527344 101.2746582 C49.40288674 101.29970793 46.90057252 101.33375742 44.3984375 101.37719727 C40.78887993 101.43826661 37.18029481 101.46630674 33.5703125 101.48828125 C32.46261505 101.51408768 31.3549176 101.5398941 30.21365356 101.56648254 C22.04291847 101.56939265 15.33489097 99.87857739 9.12210083 94.31977844 C1.99337221 86.84498164 -0.16631358 77.58069073 -0.11352539 67.54760742 C-0.11367142 66.8153595 -0.11381744 66.08311157 -0.1139679 65.32867432 C-0.11327413 62.92090845 -0.10550692 60.51322102 -0.09765625 58.10546875 C-0.09579017 56.43109682 -0.09436716 54.75672435 -0.09336853 53.08235168 C-0.08955835 48.68472779 -0.0797409 44.28713716 -0.06866455 39.88952637 C-0.05841816 35.39836069 -0.053864 30.90718963 -0.04882812 26.41601562 C-0.03811726 17.61066186 -0.02105888 8.80533507 0 0 Z " fill="#EA7363" transform="translate(14,90)"/>
<path d="M0 0 C1.20374268 0.02094727 2.40748535 0.04189453 3.64770508 0.06347656 C4.63941963 0.07686066 4.63941963 0.07686066 5.65116882 0.09051514 C7.08007104 0.11066144 8.50891777 0.13509849 9.93768311 0.16333008 C12.16224835 0.20401035 14.38621309 0.22537772 16.61108398 0.24121094 C20.45155694 0.27128877 24.29058655 0.33377407 28.13037109 0.41162109 C29.70545105 0.44010118 31.28068111 0.46117865 32.85595703 0.47509766 C43.30152936 0.57202533 52.77878771 0.98326217 61.47973633 7.45410156 C67.22549949 13.33348712 71.43428694 20.25699819 71.39428711 28.63696289 C71.39413605 29.69768509 71.39398499 30.75840729 71.39382935 31.85127258 C71.38350677 32.98477646 71.3731842 34.11828033 71.36254883 35.28613281 C71.35971893 36.45544846 71.35688904 37.6247641 71.35397339 38.82951355 C71.34279195 42.55864764 71.31769067 46.28754024 71.29223633 50.01660156 C71.28220391 52.54719705 71.27307852 55.0777963 71.26489258 57.60839844 C71.24285925 63.80704833 71.20940167 70.00555769 71.16723633 76.20410156 C70.17284245 74.22688549 69.18981722 72.25370064 68.27270508 70.23925781 C66.15561959 65.68977624 63.88939705 62.65390906 60.16723633 59.20410156 C59.38348633 58.23472656 58.59973633 57.26535156 57.79223633 56.26660156 C55.95873721 54.01483546 54.03305195 52.17477336 51.79223633 50.32910156 C48.41428585 47.53734639 45.68089677 44.40950551 42.85083008 41.07519531 C41.05416735 38.98883667 41.05416735 38.98883667 38.16723633 36.70410156 C35.01126388 34.07412452 32.49271793 31.24268798 29.83129883 28.12988281 C27.07588949 24.94111097 24.2622271 22.00314888 20.85473633 19.51660156 C20.29786133 19.08347656 19.74098633 18.65035156 19.16723633 18.20410156 C19.16723633 17.54410156 19.16723633 16.88410156 19.16723633 16.20410156 C18.17723633 15.87410156 17.18723633 15.54410156 16.16723633 15.20410156 C14.50056966 13.5374349 12.83390299 11.87076823 11.16723633 10.20410156 C9.52754883 9.12128906 9.52754883 9.12128906 7.85473633 8.01660156 C6.96786133 7.41847656 6.08098633 6.82035156 5.16723633 6.20410156 C5.16723633 5.54410156 5.16723633 4.88410156 5.16723633 4.20410156 C1.86723633 3.54410156 -1.43276367 2.88410156 -4.83276367 2.20410156 C-2.83276367 0.20410156 -2.83276367 0.20410156 0 0 Z " fill="#EA705F" transform="translate(124.832763671875,11.7958984375)"/>
<path d="M0 0 C1.20374268 0.02094727 2.40748535 0.04189453 3.64770508 0.06347656 C4.63941963 0.07686066 4.63941963 0.07686066 5.65116882 0.09051514 C7.08007104 0.11066144 8.50891777 0.13509849 9.93768311 0.16333008 C12.16224835 0.20401035 14.38621309 0.22537772 16.61108398 0.24121094 C20.45155694 0.27128877 24.29058655 0.33377407 28.13037109 0.41162109 C29.70545105 0.44010118 31.28068111 0.46117865 32.85595703 0.47509766 C50.89922661 0.6425267 50.89922661 0.6425267 58.16723633 5.20410156 C58.66223633 6.19410156 58.66223633 6.19410156 59.16723633 7.20410156 C57.18723633 6.87410156 55.20723633 6.54410156 53.16723633 6.20410156 C53.16723633 5.54410156 53.16723633 4.88410156 53.16723633 4.20410156 C48.64665149 4.03039284 44.12581552 3.86438013 39.60473633 3.70410156 C38.92984161 3.68009277 38.2549469 3.65608398 37.55960083 3.63134766 C27.45726613 3.2786948 17.37432971 3.10911504 7.26464844 3.24121094 C3.09023659 3.28147235 -0.76259499 3.28722337 -4.83276367 2.20410156 C-2.83276367 0.20410156 -2.83276367 0.20410156 0 0 Z " fill="#E38A7C" transform="translate(124.832763671875,11.7958984375)"/>
<path d="M0 0 C2.475 0.495 2.475 0.495 5 1 C1.69477196 3.20348536 0.72339001 3.24563385 -3.11401367 3.22705078 C-4.15486618 3.22689972 -5.19571869 3.22674866 -6.26811218 3.22659302 C-7.39006485 3.21627045 -8.51201752 3.20594788 -9.66796875 3.1953125 C-11.39289299 3.19106766 -11.39289299 3.19106766 -13.15266418 3.18673706 C-16.83104796 3.17552833 -20.50918962 3.15042224 -24.1875 3.125 C-26.67903295 3.11497111 -29.1705697 3.1058451 -31.66210938 3.09765625 C-37.77482241 3.07558673 -43.88739391 3.04210224 -50 3 C-50 2.67 -50 2.34 -50 2 C-33.5 2 -17 2 0 2 C0 1.34 0 0.68 0 0 Z " fill="#BFB6E3" transform="translate(172,189)"/>
<path d="M0 0 C0.33 0 0.66 0 1 0 C1 14.85 1 29.7 1 45 C-0.64350079 41.71299843 -1.41321669 39.52069985 -2 36 C-1.34 36 -0.68 36 0 36 C0 24.12 0 12.24 0 0 Z " fill="#D56D5D" transform="translate(195,43)"/>
<path d="M0 0 C4.05910468 1.35303489 4.9213069 3.34436731 7 7 C7 8.32 7 9.64 7 11 C6.34 10.67 5.68 10.34 5 10 C4.34 10.66 3.68 11.32 3 12 C2.01 11.34 1.02 10.68 0 10 C-0.29296875 7.6171875 -0.29296875 7.6171875 -0.1875 4.875 C-0.16042969 3.96492188 -0.13335937 3.05484375 -0.10546875 2.1171875 C-0.07066406 1.41851562 -0.03585937 0.71984375 0 0 Z " fill="#DE7266" transform="translate(16,124)"/>
<path d="M0 0 C0.66 0 1.32 0 2 0 C2.66 2.31 3.32 4.62 4 7 C5.65 7.33 7.3 7.66 9 8 C9.33 8.99 9.66 9.98 10 11 C2.97597192 10.85055259 -0.81743147 7.50096088 -6 3 C-5.38125 2.87625 -4.7625 2.7525 -4.125 2.625 C-1.80879168 2.12802644 -1.80879168 2.12802644 0 0 Z " fill="#422452" transform="translate(78,179)"/>
<path d="M0 0 C1.27875 0.01417969 2.5575 0.02835938 3.875 0.04296875 C4.54474854 0.04941406 5.21449707 0.05585938 5.90454102 0.0625 C11.26719361 0.14477491 16.55973411 0.5301043 21.875 1.23046875 C21.875 1.56046875 21.875 1.89046875 21.875 2.23046875 C18.31298805 2.42813419 14.75038633 2.61180504 11.1875 2.79296875 C10.18009766 2.84904297 9.17269531 2.90511719 8.13476562 2.96289062 C6.67006836 3.03540039 6.67006836 3.03540039 5.17578125 3.109375 C4.28028564 3.15650635 3.38479004 3.2036377 2.4621582 3.25219727 C-0.19323177 3.2298957 -2.54458599 2.83439543 -5.125 2.23046875 C-3.125 0.23046875 -3.125 0.23046875 0 0 Z " fill="#DFA5A1" transform="translate(125.125,11.76953125)"/>
<path d="M0 0 C0.66 0.33 1.32 0.66 2 1 C0.54821438 4.38749978 -1.36940603 6.45161209 -4 9 C-4.99 10.485 -4.99 10.485 -6 12 C-6.66 11.67 -7.32 11.34 -8 11 C-6.52670958 5.99081256 -3.72484762 3.48192278 0 0 Z " fill="#C4BCE7" transform="translate(26,18)"/>
<path d="M0 0 C0.66 0.33 1.32 0.66 2 1 C1.34 3.64 0.68 6.28 0 9 C-1.14926266 8.04578192 -2.29430541 7.08647955 -3.4375 6.125 C-4.07558594 5.59132812 -4.71367188 5.05765625 -5.37109375 4.5078125 C-7 3 -7 3 -8 1 C-6.8553125 1.309375 -6.8553125 1.309375 -5.6875 1.625 C-2.78114056 2.33391203 -2.78114056 2.33391203 0 0 Z " fill="#482852" transform="translate(61,161)"/>
<path d="M0 0 C2.9375 0.8125 2.9375 0.8125 6 2 C6.33 2.99 6.66 3.98 7 5 C8.29355827 6.37195574 9.62298702 7.71182656 11 9 C10.67 9.66 10.34 10.32 10 11 C5.86062408 7.69984002 2.41337795 4.82675589 0 0 Z " fill="#C96869" transform="translate(170,54)"/>
<path d="M0 0 C0.60328125 0.33773437 1.2065625 0.67546875 1.828125 1.0234375 C2.62734375 1.46945313 3.4265625 1.91546875 4.25 2.375 C5.43335937 3.03628906 5.43335937 3.03628906 6.640625 3.7109375 C8.73495054 4.85518821 10.86542573 5.93271286 13 7 C9.37 7 5.74 7 2 7 C2 6.34 2 5.68 2 5 C1.34 4.67 0.68 4.34 0 4 C0 2.68 0 1.36 0 0 Z " fill="#D26D69" transform="translate(75,184)"/>
<path d="M0 0 C1.65 1.65 3.3 3.3 5 5 C4.01 5.495 4.01 5.495 3 6 C2.67 6.825 2.34 7.65 2 8.5 C1 11 1 11 -1 12 C-1.625 10.125 -1.625 10.125 -2 8 C-1.34 7.34 -0.68 6.68 0 6 C0.16681109 2.91652174 0.16681109 2.91652174 0 0 Z " fill="#E98275" transform="translate(186,20)"/>
<path d="M0 0 C6.6 0 13.2 0 20 0 C20 0.33 20 0.66 20 1 C14.72 1 9.44 1 4 1 C4 1.66 4 2.32 4 3 C4.66 3 5.32 3 6 3 C6 3.66 6 4.32 6 5 C4.68 4.67 3.36 4.34 2 4 C2 3.34 2 2.68 2 2 C1.34 2 0.68 2 0 2 C0 1.34 0 0.68 0 0 Z " fill="#D67165" transform="translate(128,14)"/>
<path d="M0 0 C2.475 0.495 2.475 0.495 5 1 C1.69711664 3.20192224 0.72537273 3.23959968 -3.10546875 3.1953125 C-4.08837891 3.18886719 -5.07128906 3.18242187 -6.08398438 3.17578125 C-7.10814453 3.15902344 -8.13230469 3.14226562 -9.1875 3.125 C-10.22326172 3.11597656 -11.25902344 3.10695312 -12.32617188 3.09765625 C-14.88434685 3.0740786 -17.44205748 3.0411703 -20 3 C-20 2.67 -20 2.34 -20 2 C-13.4 2 -6.8 2 0 2 C0 1.34 0 0.68 0 0 Z " fill="#C7BEE7" transform="translate(172,189)"/>
<path d="M0 0 C1.65 0 3.3 0 5 0 C5.061875 0.78375 5.12375 1.5675 5.1875 2.375 C5.455625 3.24125 5.72375 4.1075 6 5 C8.47636012 6.37466625 8.47636012 6.37466625 11 7 C10.67 7.99 10.34 8.98 10 10 C9.01 9.34 8.02 8.68 7 8 C7 7.34 7 6.68 7 6 C6.01 5.67 5.02 5.34 4 5 C2.61423077 3.37667033 1.27358732 1.71275535 0 0 Z " fill="#C5686E" transform="translate(137,22)"/>
<path d="M0 0 C1.09054688 0.02320313 2.18109375 0.04640625 3.3046875 0.0703125 C4.40039062 0.08835937 5.49609375 0.10640625 6.625 0.125 C7.46804687 0.14820313 8.31109375 0.17140625 9.1796875 0.1953125 C9.1796875 0.5253125 9.1796875 0.8553125 9.1796875 1.1953125 C8.58800781 1.31648437 7.99632813 1.43765625 7.38671875 1.5625 C3.14165165 2.46275893 -0.84470911 3.39987871 -4.8203125 5.1953125 C-4.8203125 1.14217215 -4.04693565 0.2802587 0 0 Z " fill="#A69CCD" transform="translate(82.8203125,12.8046875)"/>
<path d="M0 0 C2.69269909 0.37301459 3.78389625 0.7601145 5.6328125 2.8125 C6.12523437 3.534375 6.61765625 4.25625 7.125 5 C9.10073376 8.02283894 9.10073376 8.02283894 12 10 C11.67 10.66 11.34 11.32 11 12 C10.278125 11.2575 9.55625 10.515 8.8125 9.75 C6.10460629 6.99591028 6.10460629 6.99591028 3.25 4.875 C1 3 1 3 0 0 Z " fill="#4F2548" transform="translate(32,140)"/>
<path d="M0 0 C1.15224028 0.92961422 2.29659176 1.8690125 3.4375 2.8125 C4.07558594 3.33457031 4.71367187 3.85664063 5.37109375 4.39453125 C7 6 7 6 8 9 C7.34 9 6.68 9 6 9 C6 8.34 6 7.68 6 7 C4.02 7 2.04 7 0 7 C0.33 6.01 0.66 5.02 1 4 C0.61067144 1.85744207 0.61067144 1.85744207 0 0 Z " fill="#CA6A69" transform="translate(26,135)"/>
<path d="M0 0 C4.875 3.625 4.875 3.625 6 7 C5.01 7 4.02 7 3 7 C2.34 7.66 1.68 8.32 1 9 C0 2.25 0 2.25 0 0 Z " fill="#D06964" transform="translate(35,144)"/>
<path d="M0 0 C1.98 0.495 1.98 0.495 4 1 C3.34 2.65 2.68 4.3 2 6 C1.34 6 0.68 6 0 6 C-0.33 6.99 -0.66 7.98 -1 9 C-0.67 6.03 -0.34 3.06 0 0 Z " fill="#A599D1" transform="translate(16,76)"/>
<path d="M0 0 C5.445 1.485 5.445 1.485 11 3 C11 3.66 11 4.32 11 5 C6.62886504 4.49172849 3.61004338 3.54826592 0 1 C0 0.67 0 0.34 0 0 Z " fill="#E98980" transform="translate(27,186)"/>
<path d="M0 0 C2 1 2 1 2 1 Z M-5 1 C-3.35 1 -1.7 1 0 1 C-0.33 1.99 -0.66 2.98 -1 4 C-0.67 4.99 -0.34 5.98 0 7 C-2.475 6.01 -2.475 6.01 -5 5 C-5 3.66666667 -5 2.33333333 -5 1 Z " fill="#4F4375" transform="translate(133,81)"/>
<path d="M0 0 C2.71435596 0.93305986 3.78043163 1.62673377 5.25 4.125 C5.4975 4.74375 5.745 5.3625 6 6 C0.25 4.375 0.25 4.375 -2 1 C-1.34 0.67 -0.68 0.34 0 0 Z " fill="#422250" transform="translate(156,42)"/>
<path d="M0 0 C0.66 0.33 1.32 0.66 2 1 C0.35 2.32 -1.3 3.64 -3 5 C-3.99 4.34 -4.98 3.68 -6 3 C-4.03533587 1.93224776 -2.03144641 0.93446535 0 0 Z M-5 5 C-4.34 5 -3.68 5 -3 5 C-3.33 5.66 -3.66 6.32 -4 7 C-4.33 6.34 -4.66 5.68 -5 5 Z " fill="#CAC2E8" transform="translate(34,14)"/>
<path d="M0 0 C1.65 1.65 3.3 3.3 5 5 C2 7 2 7 0 7 C0 4.69 0 2.38 0 0 Z " fill="#CC6A69" transform="translate(49,158)"/>
<path d="M0 0 C0 0.66 0 1.32 0 2 C0.66 2 1.32 2 2 2 C2.33 2.99 2.66 3.98 3 5 C-0.45925163 3.7508258 -3.14693203 2.32472205 -6 0 C-3.50907189 -1.24546405 -2.58919267 -0.7767578 0 0 Z " fill="#3E345D" transform="translate(110,72)"/>
<path d="M0 0 C1.65 1.65 3.3 3.3 5 5 C3.35 5.33 1.7 5.66 0 6 C-1.24546405 3.50907189 -0.7767578 2.58919267 0 0 Z " fill="#C86766" transform="translate(44,153)"/>
<path d="M0 0 C1.32 1.32 2.64 2.64 4 4 C3.01 4 2.02 4 1 4 C1 4.66 1 5.32 1 6 C0.01 5.67 -0.98 5.34 -2 5 C-1.34 3.35 -0.68 1.7 0 0 Z " fill="#482754" transform="translate(179,64)"/>
<path d="M0 0 C2.31 0.66 4.62 1.32 7 2 C7.33 3.32 7.66 4.64 8 6 C6.66402348 5.19185349 5.331275 4.37836819 4 3.5625 C3.2575 3.11003906 2.515 2.65757813 1.75 2.19140625 C1.1725 1.79824219 0.595 1.40507813 0 1 C0 0.67 0 0.34 0 0 Z " fill="#3F3561" transform="translate(135,88)"/>
<path d="M0 0 C1.31571603 0.2547514 2.62760376 0.52934141 3.9375 0.8125 C4.66839844 0.96332031 5.39929688 1.11414063 6.15234375 1.26953125 C6.76207031 1.51058594 7.37179688 1.75164062 8 2 C8.33 2.99 8.66 3.98 9 5 C5.22454612 3.90931332 2.52956528 3.0916909 0 0 Z " fill="#51476D" transform="translate(119,80)"/>
<path d="M0 0 C0 3.3 0 6.6 0 10 C-1.64350079 6.71299843 -2.41321669 4.52069985 -3 1 C-1 0 -1 0 0 0 Z " fill="#B56669" transform="translate(196,78)"/>
<path d="" fill="#FFFFFF" transform="translate(0,0)"/>
<path d="" fill="#FFFFFF" transform="translate(0,0)"/>
<path d="" fill="#FFFFFF" transform="translate(0,0)"/>
<path d="" fill="#FFFFFF" transform="translate(0,0)"/>
<path d="" fill="#FFFFFF" transform="translate(0,0)"/>
<path d="" fill="#FFFFFF" transform="translate(0,0)"/>
<path d="" fill="#FFFFFF" transform="translate(0,0)"/>
<path d="" fill="#FFFFFF" transform="translate(0,0)"/>
<path d="" fill="#FFFFFF" transform="translate(0,0)"/>
<path d="" fill="#FFFFFF" transform="translate(0,0)"/>
<path d="" fill="#FFFFFF" transform="translate(0,0)"/>
<path d="" fill="#FFFFFF" transform="translate(0,0)"/>
<path d="" fill="#FFFFFF" transform="translate(0,0)"/>
<path d="" fill="#FFFFFF" transform="translate(0,0)"/>
<path d="" fill="#FFFFFF" transform="translate(0,0)"/>
<path d="" fill="#FFFFFF" transform="translate(0,0)"/>
<path d="" fill="#FFFFFF" transform="translate(0,0)"/>
<path d="" fill="#FFFFFF" transform="translate(0,0)"/>
<path d="" fill="#FFFFFF" transform="translate(0,0)"/>
<path d="" fill="#FFFFFF" transform="translate(0,0)"/>
<path d="" fill="#FFFFFF" transform="translate(0,0)"/>
<path d="" fill="#FFFFFF" transform="translate(0,0)"/>
<path d="" fill="#FFFFFF" transform="translate(0,0)"/>
<path d="" fill="#FFFFFF" transform="translate(0,0)"/>
<path d="" fill="#FFFFFF" transform="translate(0,0)"/>
<path d="" fill="#FFFFFF" transform="translate(0,0)"/>
<path d="" fill="#FFFFFF" transform="translate(0,0)"/>
<path d="" fill="#FFFFFF" transform="translate(0,0)"/>
<path d="" fill="#FFFFFF" transform="translate(0,0)"/>
</svg>
